name C:\Users\u0101727\Documents\MyRepositories\upper-imu-dc\Results\main_tracking\Case_40\FLX01_angularVelocities_bodyFrame.mot
datacolumns 4
datarows 129
range 3.51000000 4.79000000
endheader 
time	radius_imu_x	radius_imu_y	radius_imu_z	
          3.51000000	          0.02258515	          0.10508145	          0.10927699	
          3.52000000	          0.03708611	          0.06990784	          0.10527250	
          3.53000000	          0.05157266	          0.03259204	          0.10011070	
          3.54000000	          0.06500405	         -0.00135872	          0.09390829	
          3.55000000	          0.07642655	         -0.02659999	          0.08683222	
          3.56000000	          0.08511684	         -0.03892247	          0.07911183	
          3.57000000	          0.09067326	         -0.03602825	          0.07101840	
          3.58000000	          0.09303320	         -0.01795246	          0.06281680	
          3.59000000	          0.09242453	          0.01292903	          0.05471442	
          3.60000000	          0.08928004	          0.05232648	          0.04683612	
          3.61000000	          0.08414808	          0.09485553	          0.03923778	
          3.62000000	          0.07762373	          0.13506414	          0.03194842	
          3.63000000	          0.07030834	          0.16837202	          0.02502121	
          3.64000000	          0.06278956	          0.19167760	          0.01857653	
          3.65000000	          0.05562895	          0.20353195	          0.01282570	
          3.66000000	          0.04934968	          0.20390973	          0.00806867	
          3.67000000	          0.04442301	          0.19374138	          0.00466769	
          3.68000000	          0.04125112	          0.17443598	          0.00301032	
          3.69000000	          0.04014329	          0.14752691	          0.00347668	
          3.70000000	          0.04128885	          0.11443759	          0.00641512	
          3.71000000	          0.04474002	          0.07635891	          0.01212226	
          3.72000000	          0.05042495	          0.03432338	          0.02082889	
          3.73000000	          0.05819548	         -0.01046704	          0.03269469	
          3.74000000	          0.06787846	         -0.05623574	          0.04779856	
          3.75000000	          0.07928968	         -0.10051079	          0.06610288	
          3.76000000	          0.09220032	         -0.14053339	          0.08739034	
          3.77000000	          0.10627954	         -0.17406402	          0.11120581	
          3.78000000	          0.12105306	         -0.20010111	          0.13685837	
          3.79000000	          0.13591129	         -0.21902512	          0.16351982	
          3.80000000	          0.15016990	         -0.23208675	          0.19039326	
          3.81000000	          0.16315558	         -0.24059070	          0.21687327	
          3.82000000	          0.17429331	         -0.24526119	          0.24263358	
          3.83000000	          0.18319040	         -0.24614679	          0.26762984	
          3.84000000	          0.18970932	         -0.24310611	          0.29204381	
          3.85000000	          0.19400057	         -0.23650993	          0.31620191	
          3.86000000	          0.19646550	         -0.22763730	          0.34049040	
          3.87000000	          0.19764844	         -0.21852415	          0.36527654	
          3.88000000	          0.19809728	         -0.21140905	          0.39084439	
          3.89000000	          0.19824619	         -0.20803469	          0.41736039	
          3.90000000	          0.19835300	         -0.20900652	          0.44487608	
          3.91000000	          0.19849181	         -0.21343574	          0.47335083	
          3.92000000	          0.19859156	         -0.21912789	          0.50267100	
          3.93000000	          0.19851405	         -0.22339376	          0.53266667	
          3.94000000	          0.19815287	         -0.22420371	          0.56314838	
          3.95000000	          0.19751813	         -0.22119990	          0.59396771	
          3.96000000	          0.19677798	         -0.21617509	          0.62507159	
          3.97000000	          0.19625234	         -0.21283652	          0.65651876	
          3.98000000	          0.19637702	         -0.21587780	          0.68845991	
          3.99000000	          0.19766052	         -0.22963149	          0.72110442	
          4.00000000	          0.20064094	         -0.25676254	          0.75468701	
          4.01000000	          0.20583679	         -0.29740137	          0.78943284	
          4.02000000	          0.21369680	         -0.34886959	          0.82552046	
          4.03000000	          0.22456521	         -0.40593964	          0.86304715	
          4.04000000	          0.23865987	         -0.46152097	          0.90199321	
          4.05000000	          0.25604117	         -0.50774350	          0.94217284	
          4.06000000	          0.27656501	         -0.53740380	          0.98317292	
          4.07000000	          0.29984024	         -0.54552199	          1.02430588	
          4.08000000	          0.32521969	         -0.53055018	          1.06461178	
          4.09000000	          0.35184737	         -0.49483330	          1.10292941	
          4.10000000	          0.37876888	         -0.44417640	          1.13803121	
          4.11000000	          0.40508012	         -0.38661324	          1.16878937	
          4.12000000	          0.43006111	         -0.33069363	          1.19432329	
          4.13000000	          0.45325902	         -0.28387495	          1.21408852	
          4.14000000	          0.47453299	         -0.25168316	          1.22789790	
          4.15000000	          0.49409111	         -0.23791087	          1.23589091	
          4.16000000	          0.51252117	         -0.24545485	          1.23847473	
          4.17000000	          0.53077891	         -0.27697124	          1.23625269	
          4.18000000	          0.55008765	         -0.33469762	          1.22994439	
          4.19000000	          0.57174202	         -0.41949305	          1.22029651	
          4.20000000	          0.59686201	         -0.52974429	          1.20798958	
          4.21000000	          0.62615275	         -0.66070154	          1.19355582	
          4.22000000	          0.65969828	         -0.80428937	          1.17732850	
          4.23000000	          0.69680748	         -0.94914271	          1.15944271	
          4.24000000	          0.73596569	         -1.08088987	          1.13990368	
          4.25000000	          0.77498566	         -1.18328296	          1.11872511	
          4.26000000	          0.81141291	         -1.24082338	          1.09610953	
          4.27000000	          0.84308574	         -1.24241656	          1.07259882	
          4.28000000	          0.86859538	         -1.18415862	          1.04910315	
          4.29000000	          0.88744813	         -1.06968013	          1.02677384	
          4.30000000	          0.89999307	         -0.90876135	          1.00679587	
          4.31000000	          0.90733884	         -0.71633025	          0.99021959	
          4.32000000	          0.91135847	         -0.51255276	          0.97787799	
          4.33000000	          0.91464152	         -0.32224195	          0.97033407	
          4.34000000	          0.92017615	         -0.17134944	          0.96778327	
          4.35000000	          0.93071679	         -0.08070450	          0.96991019	
          4.36000000	          0.94804260	         -0.05982519	          0.97577912	
          4.37000000	          0.97241847	         -0.10391787	          0.98385070	
          4.38000000	          1.00249316	         -0.19552219	          0.99216940	
          4.39000000	          1.03569924	         -0.31037247	          0.99869882	
          4.40000000	          1.06905282	         -0.42569708	          1.00172150	
          4.41000000	          1.10009589	         -0.52805805	          1.00017372	
          4.42000000	          1.12757836	         -0.61701227	          0.99376790	
          4.43000000	          1.15152074	         -0.70207205	          0.98283187	
          4.44000000	          1.17266166	         -0.79431011	          0.96796726	
          4.45000000	          1.19168936	         -0.89735760	          0.94974391	
          4.46000000	          1.20871733	         -1.00250430	          0.92859160	
          4.47000000	          1.22323901	         -1.09009139	          0.90490357	
          4.48000000	          1.23454375	         -1.13663638	          0.87926049	
          4.49000000	          1.24237784	         -1.12466741	          0.85264044	
          4.50000000	          1.24747718	         -1.05037364	          0.82647594	
          4.51000000	          1.25164888	         -0.92503633	          0.80248935	
          4.52000000	          1.25740090	         -0.77033219	          0.78237586	
          4.53000000	          1.26737640	         -0.61104998	          0.76747947	
          4.54000000	          1.28380886	         -0.46861396	          0.75856009	
          4.55000000	          1.30810886	         -0.35721786	          0.75568619	
          4.56000000	          1.34070668	         -0.28344720	          0.75827007	
          4.57000000	          1.38121693	         -0.24890552	          0.76522377	
          4.58000000	          1.42875182	         -0.25313551	          0.77513905	
          4.59000000	          1.48209085	         -0.29404654	          0.78639285	
          4.60000000	          1.53961055	         -0.36606506	          0.79718478	
          4.61000000	          1.59914837	         -0.45883177	          0.80559799	
          4.62000000	          1.65804625	         -0.55880946	          0.80975230	
          4.63000000	          1.71347012	         -0.65344420	          0.80802835	
          4.64000000	          1.76286654	         -0.73495212	          0.79926283	
          4.65000000	          1.80432209	         -0.80091540	          0.78283070	
          4.66000000	          1.83672333	         -0.85184242	          0.75862528	
          4.67000000	          1.85976944	         -0.88834642	          0.72700105	
          4.68000000	          1.87390349	         -0.91019447	          0.68870996	
          4.69000000	          1.88017656	         -0.91730267	          0.64481469	
          4.70000000	          1.88003844	         -0.91099292	          0.59655850	
          4.71000000	          1.87507666	         -0.89381355	          0.54520499	
          4.72000000	          1.86678233	         -0.86790074	          0.49190245	
          4.73000000	          1.85644255	         -0.83353094	          0.43762923	
          4.74000000	          1.84517945	         -0.78938371	          0.38322197	
          4.75000000	          1.83403178	         -0.73427586	          0.32942563	
          4.76000000	          1.82394433	         -0.66878039	          0.27690117	
          4.77000000	          1.81563191	         -0.59551694	          0.22618700	
          4.78000000	          1.80940835	         -0.51821298	          0.17766445	
          4.79000000	          1.80510770	         -0.44046710	          0.13157873	
